# xmcd CD database file
#
# Track frame offsets:
#	150
#	15925
#	35091
#	51852
#	71255
#	90960
#	112817
#	134725
#	151505
#	173152
#	192615
#	220440
#
# Disc length: 3243 seconds
#
# Revision: 2
# Processed by: cddbd v1.5.2PL0 Copyright (c) Steve Scherf et al.
# Submitted via: CDex 1.70beta2
#
DISCID=9a0ca90c
DTITLE=N*E*R*D - In Search Of...
DYEAR=2002
DGENRE=Rock
TTITLE0=Lapdance feat. Lee Harvey and Vita
TTITLE1=Things Are Getting Better
TTITLE2=Brain
TTITLE3=Provider
TTITLE4=Truth Or Dare feat. Kelis and Pusha T
TTITLE5=Tape You
TTITLE6=Run To The Sun
TTITLE7=Baby Doll
TTITLE8=Am I High feat. Malice
TTITLE9=Rock Star
TTITLE10=Bobby James
TTITLE11=Stay Together
EXTD=YEAR: 2002
EXTT0=
EXTT1=
EXTT2=
EXTT3=
EXTT4=
EXTT5=
EXTT6=
EXTT7=
EXTT8=
EXTT9=
EXTT10=
EXTT11=
PLAYORDER=
